<svg width="32" height="32" viewBox="0 0 32 32" fill="none" xmlns="http://www.w3.org/2000/svg">
<path fill-rule="evenodd" clip-rule="evenodd" d="M13.5173 2.42C14.1145 2.24084 14.7453 2.20378 15.3594 2.31177C15.9735 2.41977 16.5538 2.66982 17.0541 3.04197C17.5544 3.41413 17.9607 3.89808 18.2407 4.45519C18.5207 5.01231 18.6665 5.62716 18.6666 6.25067V25.7493C18.6665 26.3728 18.5207 26.9877 18.2407 27.5448C17.9607 28.1019 17.5544 28.5859 17.0541 28.958C16.5538 29.3302 15.9735 29.5802 15.3594 29.6882C14.7453 29.7962 14.1145 29.7592 13.5173 29.58L5.51729 27.18C4.69343 26.9329 3.97117 26.4267 3.45767 25.7367C2.94416 25.0466 2.66677 24.2095 2.66663 23.3493V8.65067C2.66677 7.79053 2.94416 6.95335 3.45767 6.26331C3.97117 5.57328 4.69343 5.06715 5.51729 4.82L13.5173 2.42V2.42ZM20 5.33333C20 4.97971 20.1404 4.64057 20.3905 4.39052C20.6405 4.14048 20.9797 4 21.3333 4H25.3333C26.3942 4 27.4116 4.42143 28.1617 5.17157C28.9119 5.92172 29.3333 6.93913 29.3333 8V9.33333C29.3333 9.68695 29.1928 10.0261 28.9428 10.2761C28.6927 10.5262 28.3536 10.6667 28 10.6667C27.6463 10.6667 27.3072 10.5262 27.0571 10.2761C26.8071 10.0261 26.6666 9.68695 26.6666 9.33333V8C26.6666 7.64638 26.5261 7.30724 26.2761 7.05719C26.0261 6.80714 25.6869 6.66667 25.3333 6.66667H21.3333C20.9797 6.66667 20.6405 6.52619 20.3905 6.27614C20.1404 6.02609 20 5.68695 20 5.33333ZM28 21.3333C28.3536 21.3333 28.6927 21.4738 28.9428 21.7239C29.1928 21.9739 29.3333 22.313 29.3333 22.6667V24C29.3333 25.0609 28.9119 26.0783 28.1617 26.8284C27.4116 27.5786 26.3942 28 25.3333 28H21.3333C20.9797 28 20.6405 27.8595 20.3905 27.6095C20.1404 27.3594 20 27.0203 20 26.6667C20 26.313 20.1404 25.9739 20.3905 25.7239C20.6405 25.4738 20.9797 25.3333 21.3333 25.3333H25.3333C25.6869 25.3333 26.0261 25.1929 26.2761 24.9428C26.5261 24.6928 26.6666 24.3536 26.6666 24V22.6667C26.6666 22.313 26.8071 21.9739 27.0571 21.7239C27.3072 21.4738 27.6463 21.3333 28 21.3333ZM12 14.6667C11.6463 14.6667 11.3072 14.8071 11.0572 15.0572C10.8071 15.3072 10.6666 15.6464 10.6666 16C10.6666 16.3536 10.8071 16.6928 11.0572 16.9428C11.3072 17.1929 11.6463 17.3333 12 17.3333H12.0013C12.3549 17.3333 12.6941 17.1929 12.9441 16.9428C13.1941 16.6928 13.3346 16.3536 13.3346 16C13.3346 15.6464 13.1941 15.3072 12.9441 15.0572C12.6941 14.8071 12.3549 14.6667 12.0013 14.6667H12Z" fill="white"/>
<path d="M21.3333 16H27.9999M27.9999 16L25.3333 13.3333M27.9999 16L25.3333 18.6667" stroke="white" stroke-width="2" stroke-linecap="round" stroke-linejoin="round"/>
</svg>
