<svg width="175" height="40" viewBox="0 0 175 40" fill="none" xmlns="http://www.w3.org/2000/svg">
<g filter="url(#filter0_d_1_98)">
<path d="M10.6667 5.33333H16C16.3536 5.33333 16.6928 5.47381 16.9428 5.72386C17.1929 5.97391 17.3334 6.31305 17.3334 6.66667V12C17.3334 12.3536 17.1929 12.6928 16.9428 12.9428C16.6928 13.1929 16.3536 13.3333 16 13.3333H10.6667M10.6667 18.6667H16C16.3536 18.6667 16.6928 18.8071 16.9428 19.0572C17.1929 19.3072 17.3334 19.6464 17.3334 20V25.3333C17.3334 25.687 17.1929 26.0261 16.9428 26.2761C16.6928 26.5262 16.3536 26.6667 16 26.6667H10.6667M17.3334 9.33333H22.6667C23.0203 9.33333 23.3594 9.47381 23.6095 9.72386C23.8595 9.97391 24 10.313 24 10.6667V21.3333C24 21.687 23.8595 22.0261 23.6095 22.2761C23.3594 22.5262 23.0203 22.6667 22.6667 22.6667H17.3334M24 16H30.6667" stroke="white" stroke-width="2" stroke-linecap="round" stroke-linejoin="round"/>
<path d="M35.5817 12.2749V10.8182H43.6058V12.2749H40.4489V21H38.7386V12.2749H35.5817ZM47.3208 21.1541C46.585 21.1541 45.947 20.9901 45.4068 20.6619C44.8665 20.3305 44.4473 19.8698 44.149 19.2798C43.8507 18.6899 43.7015 18.0021 43.7015 17.2166C43.7015 16.4245 43.8507 15.7318 44.149 15.1385C44.4473 14.5452 44.8665 14.0845 45.4068 13.7564C45.947 13.4283 46.585 13.2642 47.3208 13.2642C48.0533 13.2642 48.6897 13.4283 49.2299 13.7564C49.7735 14.0845 50.1944 14.5452 50.4927 15.1385C50.791 15.7318 50.9402 16.4245 50.9402 17.2166C50.9402 18.0021 50.791 18.6899 50.4927 19.2798C50.1944 19.8698 49.7735 20.3305 49.2299 20.6619C48.6897 20.9901 48.0533 21.1541 47.3208 21.1541ZM47.3258 19.7869C47.7567 19.7869 48.113 19.6709 48.3947 19.4389C48.6797 19.2069 48.8919 18.897 49.0311 18.5092C49.1736 18.1181 49.2449 17.6839 49.2449 17.2067C49.2449 16.7327 49.1736 16.3002 49.0311 15.9091C48.8919 15.518 48.6797 15.2048 48.3947 14.9695C48.113 14.7341 47.7567 14.6165 47.3258 14.6165C46.8916 14.6165 46.5304 14.7341 46.242 14.9695C45.957 15.2048 45.7449 15.518 45.6056 15.9091C45.4664 16.3002 45.3968 16.7327 45.3968 17.2067C45.3968 17.6839 45.4664 18.1181 45.6056 18.5092C45.7449 18.897 45.957 19.2069 46.242 19.4389C46.5304 19.6709 46.8916 19.7869 47.3258 19.7869ZM57.3684 17.8082V13.3636H59.0439V21H57.4132V19.6577H57.3336C57.158 20.0753 56.8746 20.42 56.4835 20.6918C56.0957 20.9635 55.6135 21.0994 55.0368 21.0994C54.5429 21.0994 54.1054 20.9884 53.7243 20.7663C53.3464 20.5443 53.0498 20.2195 52.8343 19.7919C52.6189 19.3643 52.5112 18.8407 52.5112 18.2209V13.3636H54.1866V17.9822C54.1866 18.4827 54.3225 18.8804 54.5943 19.1754C54.8694 19.4704 55.229 19.6179 55.6731 19.6179C55.9449 19.6179 56.21 19.5516 56.4686 19.419C56.7271 19.2865 56.9409 19.0859 57.1099 18.8175C57.2823 18.549 57.3684 18.2126 57.3684 17.8082ZM60.9467 21V13.3636H62.5675V14.6115H62.647C62.7862 14.1839 63.0282 13.8509 63.3729 13.6122C63.7176 13.3703 64.112 13.2493 64.5561 13.2493C64.6522 13.2493 64.7633 13.2543 64.8892 13.2642C65.0152 13.2708 65.1179 13.2824 65.1974 13.299V14.8601C65.1245 14.8369 65.0085 14.8153 64.8494 14.7955C64.6903 14.7723 64.5362 14.7607 64.3871 14.7607C64.0457 14.7607 63.7424 14.8319 63.4773 14.9744C63.2121 15.117 63.0033 15.3158 62.8509 15.571C62.6984 15.8229 62.6222 16.1129 62.6222 16.4411V21H60.9467ZM68.1046 16.5007V21H66.4292V13.3636H68.03V14.6413H68.1245C68.3001 14.2204 68.5785 13.8857 68.9597 13.6371C69.3409 13.3885 69.8181 13.2642 70.3915 13.2642C70.9152 13.2642 71.3726 13.3752 71.7637 13.5973C72.1548 13.8194 72.458 14.1442 72.6735 14.5717C72.8922 14.9993 73.0016 15.523 73.0016 16.1428V21H71.3262V16.3814C71.3262 15.8511 71.1886 15.4384 70.9135 15.1435C70.6417 14.8452 70.2656 14.696 69.785 14.696C69.4569 14.696 69.1668 14.7673 68.915 14.9098C68.6631 15.049 68.4642 15.2545 68.3184 15.5263C68.1758 15.7947 68.1046 16.1196 68.1046 16.5007ZM77.0994 21.1591C76.6155 21.1591 76.1797 21.0713 75.7919 20.8956C75.4041 20.7199 75.0975 20.4614 74.8722 20.12C74.6468 19.7753 74.5341 19.3527 74.5341 18.8523C74.5341 18.4214 74.6153 18.0651 74.7777 17.7834C74.9401 17.5017 75.1605 17.2779 75.4389 17.1122C75.7173 16.9465 76.0289 16.8222 76.3736 16.7393C76.7216 16.6532 77.0779 16.5885 77.4425 16.5455C77.8965 16.4957 78.2628 16.4527 78.5412 16.4162C78.8229 16.3797 79.0284 16.3217 79.1577 16.2422C79.2869 16.1593 79.3516 16.0317 79.3516 15.8594V15.8246C79.3516 15.4268 79.2356 15.1186 79.0036 14.8999C78.7749 14.6811 78.4384 14.5717 77.9943 14.5717C77.5303 14.5717 77.1624 14.6745 76.8906 14.88C76.6222 15.0821 76.4399 15.3158 76.3438 15.581L74.7777 15.3075C74.9235 14.8435 75.1506 14.4607 75.4588 14.1591C75.7704 13.8575 76.1416 13.6338 76.5724 13.4879C77.0066 13.3388 77.4756 13.2642 77.9794 13.2642C78.3208 13.2642 78.6688 13.304 79.0234 13.3835C79.3814 13.4631 79.7112 13.6006 80.0128 13.7962C80.3144 13.9917 80.558 14.2618 80.7436 14.6065C80.9325 14.9479 81.027 15.3804 81.027 15.9041V21H79.4062V19.951H79.3466C79.2438 20.1565 79.0947 20.352 78.8991 20.5376C78.7036 20.7199 78.4567 20.8691 78.1584 20.9851C77.8601 21.1011 77.5071 21.1591 77.0994 21.1591ZM77.5071 19.8913C77.8883 19.8913 78.2164 19.8151 78.4915 19.6626C78.7699 19.5102 78.9837 19.3113 79.1328 19.0661C79.282 18.8175 79.3565 18.5473 79.3565 18.2557V17.321C79.3002 17.3707 79.2008 17.4171 79.0582 17.4602C78.919 17.5 78.7616 17.5365 78.5859 17.5696C78.4103 17.5994 78.2363 17.6259 78.0639 17.6491C77.8916 17.6723 77.7457 17.6922 77.6264 17.7088C77.3513 17.7453 77.1027 17.8066 76.8807 17.8928C76.6586 17.9756 76.483 18.0933 76.3537 18.2457C76.2244 18.3982 76.1598 18.5971 76.1598 18.8423C76.1598 19.187 76.2857 19.4489 76.5376 19.6278C76.7929 19.8035 77.116 19.8913 77.5071 19.8913ZM82.9038 21V13.3636H84.5046V14.6413H84.5991C84.7582 14.2105 85.02 13.8741 85.3846 13.6321C85.7492 13.3868 86.185 13.2642 86.6921 13.2642C87.2058 13.2642 87.6384 13.3868 87.9897 13.6321C88.3443 13.8774 88.5996 14.2138 88.7553 14.6413H88.8349C89.0072 14.2237 89.2939 13.8906 89.695 13.642C90.096 13.3902 90.5733 13.2642 91.1268 13.2642C91.8261 13.2642 92.3962 13.4846 92.837 13.9254C93.2778 14.3662 93.4982 15.0159 93.4982 15.8743V21H91.8228V16.098C91.8228 15.6075 91.6902 15.2495 91.4251 15.0241C91.1632 14.7988 90.8434 14.6861 90.4656 14.6861C90.0115 14.6861 89.6568 14.8269 89.4016 15.1087C89.1497 15.3904 89.0238 15.7517 89.0238 16.1925V21H87.3732V16.0185C87.3732 15.6174 87.2506 15.2959 87.0053 15.054C86.7601 14.8087 86.4402 14.6861 86.0458 14.6861C85.7807 14.6861 85.5354 14.7557 85.31 14.8949C85.0879 15.0341 84.9106 15.2263 84.7781 15.4716C84.6455 15.7169 84.5792 16.0019 84.5792 16.3267V21H82.9038ZM98.7321 21.1541C97.9698 21.1541 97.3135 20.9934 96.7633 20.6719C96.2164 20.3471 95.7939 19.8913 95.4956 19.3047C95.2006 18.7147 95.0531 18.022 95.0531 17.2266C95.0531 16.4444 95.2006 15.755 95.4956 15.1584C95.7939 14.5618 96.2098 14.0978 96.7434 13.7663C97.2804 13.4316 97.9101 13.2642 98.6326 13.2642C99.0867 13.2642 99.5209 13.3388 99.9352 13.4879C100.349 13.6338 100.717 13.8625 101.039 14.174C101.36 14.4822 101.614 14.88 101.8 15.3672C101.985 15.8544 102.078 16.4361 102.078 17.1122V17.6541H95.8933V16.4808H100.457C100.457 16.1196 100.381 15.7981 100.229 15.5163C100.079 15.2313 99.8689 15.0076 99.5971 14.8452C99.3287 14.6795 99.0138 14.5966 98.6525 14.5966C98.2614 14.5966 97.92 14.6911 97.6284 14.88C97.34 15.0656 97.1163 15.3108 96.9572 15.6158C96.7981 15.9174 96.7169 16.2472 96.7136 16.6051V17.5845C96.7136 18.0552 96.7981 18.4579 96.9672 18.7926C97.1362 19.1241 97.3732 19.3776 97.6781 19.5533C97.983 19.7289 98.341 19.8168 98.752 19.8168C99.0204 19.8168 99.2657 19.7786 99.4877 19.7024C99.7098 19.6262 99.9004 19.5118 100.059 19.3594C100.219 19.2069 100.341 19.018 100.427 18.7926L101.998 19.0064C101.889 19.4373 101.687 19.8134 101.392 20.1349C101.097 20.4564 100.724 20.7067 100.273 20.8857C99.8225 21.0646 99.3088 21.1541 98.7321 21.1541ZM105.333 16.5007V21H103.658V13.3636H105.259V14.6413H105.353C105.529 14.2204 105.807 13.8857 106.188 13.6371C106.569 13.3885 107.047 13.2642 107.62 13.2642C108.144 13.2642 108.601 13.3752 108.992 13.5973C109.383 13.8194 109.687 14.1442 109.902 14.5717C110.121 14.9993 110.23 15.523 110.23 16.1428V21H108.555V16.3814C108.555 15.8511 108.417 15.4384 108.142 15.1435C107.87 14.8452 107.494 14.696 107.013 14.696C106.685 14.696 106.395 14.7673 106.143 14.9098C105.892 15.049 105.693 15.2545 105.547 15.5263C105.404 15.7947 105.333 16.1196 105.333 16.5007ZM115.834 13.3636V14.6761H111.534V13.3636H115.834ZM112.628 11.5341H114.308V18.728C114.308 18.9865 114.346 19.1837 114.422 19.3196C114.502 19.4522 114.606 19.5433 114.736 19.593C114.865 19.6394 115.007 19.6626 115.163 19.6626C115.276 19.6626 115.377 19.6544 115.466 19.6378C115.559 19.6212 115.632 19.608 115.685 19.598L115.974 20.9304C115.881 20.9635 115.75 20.9983 115.581 21.0348C115.412 21.0746 115.203 21.0978 114.954 21.1044C114.527 21.1143 114.136 21.0447 113.781 20.8956C113.43 20.7464 113.15 20.5161 112.941 20.2045C112.732 19.893 112.628 19.5002 112.628 19.0263V11.5341ZM123.186 15.3224L121.66 15.5263C121.61 15.3572 121.526 15.1982 121.406 15.049C121.29 14.8965 121.133 14.7739 120.934 14.6811C120.738 14.585 120.496 14.5369 120.208 14.5369C119.814 14.5369 119.484 14.6248 119.219 14.8004C118.954 14.9728 118.823 15.1965 118.826 15.4716C118.823 15.7036 118.909 15.8925 119.085 16.0384C119.263 16.1842 119.554 16.3035 119.955 16.3963L121.217 16.6747C121.933 16.8338 122.465 17.084 122.813 17.4254C123.165 17.7635 123.342 18.2027 123.345 18.7429C123.342 19.2169 123.204 19.6345 122.933 19.9957C122.661 20.357 122.285 20.6404 121.804 20.8459C121.323 21.0514 120.768 21.1541 120.138 21.1541C119.234 21.1541 118.503 20.9635 117.946 20.5824C117.389 20.1979 117.053 19.6593 116.937 18.9666L118.562 18.7777C118.649 19.1357 118.824 19.4058 119.089 19.5881C119.358 19.767 119.704 19.8565 120.129 19.8565C120.583 19.8565 120.946 19.7637 121.217 19.5781C121.489 19.3925 121.627 19.1622 121.63 18.8871C121.627 18.6617 121.539 18.4744 121.366 18.3253C121.197 18.1728 120.934 18.0568 120.576 17.9773L119.278 17.6989C118.553 17.5431 118.017 17.2862 117.673 16.9283C117.328 16.567 117.156 16.1113 117.156 15.5611C117.156 15.0971 117.283 14.6944 117.538 14.353C117.794 14.0083 118.15 13.7415 118.607 13.5526C119.065 13.3603 119.592 13.2642 120.188 13.2642C121.057 13.2642 121.739 13.4498 122.237 13.821C122.734 14.1922 123.05 14.6927 123.186 15.3224ZM137.551 15.9091C137.551 17.0028 137.349 17.9408 136.945 18.723C136.541 19.5019 135.987 20.1001 135.284 20.5178C134.585 20.9321 133.793 21.1392 132.908 21.1392C132.023 21.1392 131.231 20.9304 130.532 20.5128C129.832 20.0952 129.28 19.4969 128.876 18.718C128.472 17.9358 128.27 16.9995 128.27 15.9091C128.27 14.8153 128.472 13.879 128.876 13.1001C129.28 12.3179 129.832 11.7197 130.532 11.3054C131.231 10.8878 132.023 10.679 132.908 10.679C133.793 10.679 134.585 10.8878 135.284 11.3054C135.987 11.7197 136.541 12.3179 136.945 13.1001C137.349 13.879 137.551 14.8153 137.551 15.9091ZM135.831 15.9091C135.831 15.1136 135.705 14.4425 135.453 13.8956C135.202 13.3487 134.855 12.9361 134.414 12.6577C133.977 12.3759 133.475 12.2351 132.908 12.2351C132.345 12.2351 131.842 12.3759 131.402 12.6577C130.964 12.9361 130.619 13.3487 130.368 13.8956C130.116 14.4425 129.99 15.1136 129.99 15.9091C129.99 16.7045 130.116 17.3757 130.368 17.9226C130.619 18.4695 130.964 18.8838 131.402 19.1655C131.842 19.4439 132.345 19.5831 132.908 19.5831C133.475 19.5831 133.977 19.4439 134.414 19.1655C134.855 18.8838 135.202 18.4695 135.453 17.9226C135.705 17.3757 135.831 16.7045 135.831 15.9091ZM140.948 16.5007V21H139.273V13.3636H140.874V14.6413H140.968C141.144 14.2204 141.422 13.8857 141.803 13.6371C142.185 13.3885 142.662 13.2642 143.235 13.2642C143.759 13.2642 144.216 13.3752 144.607 13.5973C144.999 13.8194 145.302 14.1442 145.517 14.5717C145.736 14.9993 145.845 15.523 145.845 16.1428V21H144.17V16.3814C144.17 15.8511 144.032 15.4384 143.757 15.1435C143.485 14.8452 143.109 14.696 142.629 14.696C142.301 14.696 142.011 14.7673 141.759 14.9098C141.507 15.049 141.308 15.2545 141.162 15.5263C141.02 15.7947 140.948 16.1196 140.948 16.5007ZM149.411 10.8182V21H147.736V10.8182H149.411ZM151.318 21V13.3636H152.993V21H151.318ZM152.163 12.245C151.888 12.245 151.651 12.1522 151.452 11.9666C151.257 11.781 151.159 11.5589 151.159 11.3004C151.159 11.0419 151.257 10.8215 151.452 10.6392C151.651 10.4536 151.888 10.3608 152.163 10.3608C152.438 10.3608 152.673 10.4536 152.869 10.6392C153.065 10.8215 153.162 11.0419 153.162 11.3004C153.162 11.5589 153.065 11.781 152.869 11.9666C152.673 12.1522 152.438 12.245 152.163 12.245ZM156.575 16.5007V21H154.9V13.3636H156.501V14.6413H156.595C156.771 14.2204 157.049 13.8857 157.43 13.6371C157.812 13.3885 158.289 13.2642 158.862 13.2642C159.386 13.2642 159.843 13.3752 160.234 13.5973C160.625 13.8194 160.929 14.1442 161.144 14.5717C161.363 14.9993 161.472 15.523 161.472 16.1428V21H159.797V16.3814C159.797 15.8511 159.659 15.4384 159.384 15.1435C159.112 14.8452 158.736 14.696 158.256 14.696C157.928 14.696 157.638 14.7673 157.386 14.9098C157.134 15.049 156.935 15.2545 156.789 15.5263C156.647 15.7947 156.575 16.1196 156.575 16.5007ZM166.709 21.1541C165.946 21.1541 165.29 20.9934 164.74 20.6719C164.193 20.3471 163.77 19.8913 163.472 19.3047C163.177 18.7147 163.03 18.022 163.03 17.2266C163.03 16.4444 163.177 15.755 163.472 15.1584C163.77 14.5618 164.186 14.0978 164.72 13.7663C165.257 13.4316 165.887 13.2642 166.609 13.2642C167.063 13.2642 167.497 13.3388 167.912 13.4879C168.326 13.6338 168.694 13.8625 169.015 14.174C169.337 14.4822 169.59 14.88 169.776 15.3672C169.962 15.8544 170.055 16.4361 170.055 17.1122V17.6541H163.87V16.4808H168.434C168.434 16.1196 168.358 15.7981 168.205 15.5163C168.056 15.2313 167.845 15.0076 167.574 14.8452C167.305 14.6795 166.99 14.5966 166.629 14.5966C166.238 14.5966 165.897 14.6911 165.605 14.88C165.317 15.0656 165.093 15.3108 164.934 15.6158C164.775 15.9174 164.693 16.2472 164.69 16.6051V17.5845C164.69 18.0552 164.775 18.4579 164.944 18.7926C165.113 19.1241 165.35 19.3776 165.655 19.5533C165.96 19.7289 166.318 19.8168 166.729 19.8168C166.997 19.8168 167.242 19.7786 167.464 19.7024C167.686 19.6262 167.877 19.5118 168.036 19.3594C168.195 19.2069 168.318 19.018 168.404 18.7926L169.975 19.0064C169.866 19.4373 169.663 19.8134 169.368 20.1349C169.073 20.4564 168.701 20.7067 168.25 20.8857C167.799 21.0646 167.285 21.1541 166.709 21.1541Z" fill="white"/>
</g>
<defs>
<filter id="filter0_d_1_98" x="0" y="0" width="174.055" height="40" filterUnits="userSpaceOnUse" color-interpolation-filters="sRGB">
<feFlood flood-opacity="0" result="BackgroundImageFix"/>
<feColorMatrix in="SourceAlpha" type="matrix" values="0 0 0 0 0 0 0 0 0 0 0 0 0 0 0 0 0 0 127 0" result="hardAlpha"/>
<feOffset dy="4"/>
<feGaussianBlur stdDeviation="2"/>
<feComposite in2="hardAlpha" operator="out"/>
<feColorMatrix type="matrix" values="0 0 0 0 0 0 0 0 0 0 0 0 0 0 0 0 0 0 0.25 0"/>
<feBlend mode="normal" in2="BackgroundImageFix" result="effect1_dropShadow_1_98"/>
<feBlend mode="normal" in="SourceGraphic" in2="effect1_dropShadow_1_98" result="shape"/>
</filter>
</defs>
</svg>
