<svg width="32" height="32" viewBox="0 0 32 32" fill="none" xmlns="http://www.w3.org/2000/svg">
<path d="M16 2.66667C8.63996 2.66667 2.66663 8.64 2.66663 16C2.66663 23.36 8.63996 29.3333 16 29.3333C23.36 29.3333 29.3333 23.36 29.3333 16C29.3333 8.64 23.36 2.66667 16 2.66667ZM16 8C18.5733 8 20.6666 10.0933 20.6666 12.6667C20.6666 15.24 18.5733 17.3333 16 17.3333C13.4266 17.3333 11.3333 15.24 11.3333 12.6667C11.3333 10.0933 13.4266 8 16 8ZM16 26.6667C13.2933 26.6667 10.0933 25.5733 7.81329 22.8267C10.1488 20.9943 13.0315 19.9984 16 19.9984C18.9685 19.9984 21.8512 20.9943 24.1866 22.8267C21.9066 25.5733 18.7066 26.6667 16 26.6667Z" fill="white"/>
</svg>
