<svg width="32" height="32" viewBox="0 0 32 32" fill="none" xmlns="http://www.w3.org/2000/svg">
<path d="M16 1.5625C15.2754 1.5625 14.5625 2.3625 14.5625 3.5C14.5625 4.6375 15.2754 5.4375 16 5.4375C16.7246 5.4375 17.4375 4.6375 17.4375 3.5C17.4375 2.3625 16.7246 1.5625 16 1.5625ZM9.50306 1.74844L8.49694 2.25156C9.44019 4.13812 11.7076 5.80219 13.6337 6.90419L14.5209 18.4375H15.4375V12H16.5625V18.4375H17.4791L18.3663 6.90419C20.2924 5.80219 22.5598 4.13812 23.5031 2.25156L22.4969 1.74844C21.2526 3.61719 19.6912 4.82019 18.0386 5.35906C17.5819 6.08 16.8594 6.5625 16 6.5625C15.1406 6.5625 14.4181 6.08 13.9614 5.359C12.3088 4.82025 10.7474 3.61713 9.50306 1.74838V1.74844ZM10.5625 19.5625V25.5625H1.5625V30.4375H30.4375V28.5625H21.4375V19.5625H10.5625Z" fill="white"/>
</svg>
